:SAMPLES-PER-SECOND 30
:FULLY-SPECIFIED
:DEGREES
915
root  45.8293 38.5826 -0.520871 -84.5549 -88.4015 79.3622
RightUpLeg  5.90305 -7.28435 -2.25747
RightLeg  17.8686 6.62556 1.05833
RightFoot  -16.5969 -0.263023 -3.2884
RightToes  -4.65663e-010 0 -3.6325e-017
Spine  6.24952 1.26803 9.31194
Spine1  6.00891 3.2825 -5.84856
HEad  -10.1457 -27.2799 0.847924
LeftShoulder1  -0.524756 4.82993 -33.3818
LeftArm  -3.65495 21.1395 -36.0938
LeftForeArm  37.3046 -7.96348 -8.29092
LeftHand  -0.185193 11.16 -2.40931
RightShoulder  -0.915573 -6.17931 27.645
RightArm  29.9025 17.9277 52.6638
RightForeArm  5.44805 24.0291 4.85593
RightHand  -0.21419 5.40156 -2.61582
LeftUpLeg  -19.0659 3.81961 0.236321
LeftLeg  20.8961 -3.04799 -0.981923
LeftFoot  -0.341135 0.443882 -4.58988
LeftToes  8.74931e-010 -1.05764e-010 1.2659e-011
916
root  44.682 38.5667 -0.53066 -97.2597 -88.4128 92.32
RightUpLeg  8.6364 -7.50261 -2.6536
RightLeg  15.6703 7.31893 1.02857
RightFoot  -17.1819 -0.268161 -2.97354
RightToes  -4.65663e-010 0 -3.6325e-017
Spine  6.01269 1.35479 8.56603
Spine1  6.05266 3.3506 -6.51628
HEad  -10.1835 -26.4363 1.42318
LeftShoulder1  -0.430143 4.61247 -32.6645
LeftArm  -3.97717 22.4769 -36.4493
LeftForeArm  37.1118 -8.59718 -7.96474
LeftHand  -0.19972 10.2603 -3.24557
RightShoulder  -0.972771 -6.29882 28.25
RightArm  31.0516 18.8922 52.4897
RightForeArm  4.75889 23.7589 4.83336
RightHand  -0.208193 5.51929 -2.53175
LeftUpLeg  -17.9389 3.82158 0.0727854
LeftLeg  9.21288 -1.74158 -0.405613
LeftFoot  -0.153096 0.457032 -4.65574
LeftToes  8.74931e-010 -1.05764e-010 1.2659e-011
917
root  43.4698 38.5011 -0.50144 -114.67 -88.2418 109.965
RightUpLeg  11.3327 -7.85618 -3.39972
RightLeg  13.825 8.57268 1.20709
RightFoot  -17.8265 -0.262956 -2.52258
RightToes  -4.65663e-010 0 -3.6325e-017
Spine  5.75144 1.49026 7.26534
Spine1  6.15273 3.32886 -6.27672
HEad  -10.5267 -25.6552 1.65375
LeftShoulder1  -0.512139 4.81069 -33.0429
LeftArm  -4.18426 22.7957 -36.2466
LeftForeArm  37.1098 -8.87874 -7.78266
LeftHand  -0.209594 10.3734 -3.39428
RightShoulder  -0.977528 -6.31103 28.2677
RightArm  31.658 18.8947 52.5358
RightForeArm  4.57172 23.1442 4.76695
RightHand  -0.19969 5.7624 -2.40014
LeftUpLeg  -16.8762 2.55668 0.274162
LeftLeg  -0.132727 1.12116 -0.677965
LeftFoot  -0.427467 0.446186 -4.65737
LeftToes  8.74931e-010 -1.05764e-010 1.2659e-011
918
root  42.1789 38.287 -0.394185 -128.283 -87.9786 123.732
RightUpLeg  13.4907 -7.66315 -4.02881
RightLeg  13.5415 9.36084 1.20064
RightFoot  -19.3109 -0.241325 -1.59806
RightToes  -4.65663e-010 0 -3.6325e-017
Spine  5.09999 1.51304 6.33498
Spine1  6.69531 3.28725 -6.15218
HEad  -10.6361 -24.8127 1.88533
LeftShoulder1  -0.522793 4.83815 -33.0305
LeftArm  -3.7684 22.6258 -36.4814
LeftForeArm  36.4047 -9.37675 -7.80444
LeftHand  -0.195594 10.3632 -3.232
RightShoulder  -0.947947 -6.22502 28.2719
RightArm  31.582 18.5116 52.7962
RightForeArm  4.91102 21.76 4.8438
RightHand  -0.182783 5.79022 -2.22303
LeftUpLeg  -16.749 2.42901 -0.18231
LeftLeg  -3.90142 2.96389 -0.922552
LeftFoot  -1.64509 0.43828 -4.95639
LeftToes  8.74931e-010 -1.05764e-010 1.2659e-011
919
root  40.8174 38.0251 -0.225498 -132.095 -87.9977 127.605
RightUpLeg  15.5869 -7.21436 -4.47525
RightLeg  13.8948 9.53647 1.19887
RightFoot  -20.6626 -0.158404 -0.225047
RightToes  -4.65663e-010 0 -3.6325e-017
Spine  4.67149 1.33701 6.06953
Spine1  7.00541 3.22818 -6.60372
HEad  -10.7999 -24.7594 1.90493
LeftShoulder1  -0.528354 4.86123 -32.7726
LeftArm  -2.42517 21.7298 -36.6898
LeftForeArm  35.5929 -9.91515 -8.13521
LeftHand  -0.201227 11.9045 -2.44323
RightShoulder  -0.992206 -6.33571 28.4881
RightArm  30.1877 17.382 52.851
RightForeArm  6.04443 19.869 5.27746
RightHand  -0.160872 5.90902 -1.98287
LeftUpLeg  -18.0995 1.9115 -0.890736
LeftLeg  -0.278384 4.90403 -0.619366
LeftFoot  -0.707082 0.178186 -2.19495
LeftToes  8.74931e-010 -1.05764e-010 1.2659e-011
920
root  39.3952 37.7866 -0.0434226 -131.418 -87.3369 126.718
RightUpLeg  17.7901 -5.9605 -5.48542
RightLeg  14.6127 9.23309 1.26918
RightFoot  -21.6723 -0.0102026 1.50303
RightToes  -4.65663e-010 0 -3.6325e-017
Spine  4.7759 1.41266 4.77159
Spine1  6.8985 3.34479 -6.76562
HEad  -10.7251 -24.3072 1.89782
LeftShoulder1  -0.619222 5.0793 -33.1447
LeftArm  -2.02847 20.2445 -36.1881
LeftForeArm  36.4852 -10.0923 -8.14791
LeftHand  -0.192521 9.45767 -3.7753
RightShoulder  -1.00801 -6.33425 29.064
RightArm  28.4846 15.2657 51.9328
RightForeArm  7.41107 18.1142 5.91974
RightHand  -0.166842 5.28025 -2.12471
LeftUpLeg  -19.5742 1.3996 -2.21508
LeftLeg  5.78528 5.49533 0.0597229
LeftFoot  5.18635 -0.538646 3.56995
LeftToes  8.74931e-010 -1.05764e-010 1.2659e-011
